# xmcd
#
# Track frame offsets: 
#        182
#        16790
#        38427
#        58507
#        83090
#        101925
#        118337
#        134817
#        163135
#        188967
#        209342
#        227632
#
# Disc length: 3301 seconds
#
# Revision: 4
# Processed by: cddbd v1.5.2PL0 Copyright (c) Steve Scherf et al.
# Submitted via: ExactAudioCopy v0.99pb5
#
DISCID=a50ce30c
DTITLE=Bonnie Raitt - Longing In Their Hearts
DYEAR=1994
DGENRE=Rock
TTITLE0=Love Sneakin' Up On You
TTITLE1=Longing In Their Hearts
TTITLE2=You
TTITLE3=Cool, Clear Water
TTITLE4=Circle Dance
TTITLE5=I Sho Do
TTITLE6=Dimming Of The Day
TTITLE7=Feeling Of Falling
TTITLE8=Steal Your Heart Away
TTITLE9=Storm Warning
TTITLE10=Hell To Pay
TTITLE11=Shadow Of Doubt
EXTD=
EXTT0=
EXTT1=
EXTT2=
EXTT3=
EXTT4=
EXTT5=
EXTT6=
EXTT7=
EXTT8=
EXTT9=
EXTT10=
EXTT11=
PLAYORDER=
